<svg xmlns="http://www.w3.org/2000/svg" viewBox="0 0 256 256" width="50" height="50" fill-rule="nonzero" xmlns:v="https://vecta.io/nano"><path d="M128 10.24C63.025 10.24 10.24 63.025 10.24 128S63.025 245.76 128 245.76 245.76 192.975 245.76 128 192.975 10.24 128 10.24zm0 10.24c59.441 0 107.52 48.079 107.52 107.52S187.441 235.52 128 235.52 20.48 187.441 20.48 128 68.559 20.48 128 20.48zm40.91 61.37a5.12 5.12 0 0 0-3.57 1.57L128 120.76 90.66 83.42a5.12 5.12 0 0 0-8.413 1.644 5.12 5.12 0 0 0 1.173 5.596L120.76 128l-37.34 37.34a5.12 5.12 0 0 0 2.255 8.649 5.12 5.12 0 0 0 4.985-1.409L128 135.24l37.34 37.34a5.12 5.12 0 0 0 8.649-2.255 5.12 5.12 0 0 0-1.409-4.985L135.24 128l37.34-37.34a5.12 5.12 0 0 0-3.67-8.81z" fill="#cad2c5"/></svg>