<svg xmlns="http://www.w3.org/2000/svg" width="800" height="800" viewBox="0 -0.5 24 24" fill="none" xmlns:v="https://vecta.io/nano"><path fill-rule="evenodd" d="M12.205 0a11.5 11.5 0 0 0-3.635 22.412c.579.106.784-.254.784-.558v-1.955c-3.212.699-3.889-1.546-3.889-1.546-.213-.696-.666-1.293-1.278-1.687-1.038-.706.085-.706.085-.706a2.42 2.42 0 0 1 1.758 1.186c.315.572.846.995 1.474 1.175s1.302.103 1.872-.215a2.44 2.44 0 0 1 .706-1.539c-2.555-.289-5.238-1.278-5.238-5.647-.018-1.141.405-2.246 1.179-3.085-.345-.992-.305-2.078.113-3.042 0 0 .967-.311 3.162 1.179a10.88 10.88 0 0 1 5.76 0c2.195-1.489 3.155-1.179 3.155-1.179a4.17 4.17 0 0 1 .141 3.021c.774.839 1.196 1.943 1.179 3.085 0 4.419-2.689 5.386-5.252 5.647a2.72 2.72 0 0 1 .784 2.118v3.155c0 .374.205.664.791.551A11.5 11.5 0 0 0 12.205 0z" fill="#758ca3"/></svg>