<svg xmlns="http://www.w3.org/2000/svg" width="800" height="800" viewBox="0 0 32 32" fill="none" xmlns:v="https://vecta.io/nano"><path fill="#ffca28" d="M2 2h28v28H2z"/><path d="M19 25.288l2.061-1.364c.162.508 1.185 1.713 2.477 1.713s1.892-.706 1.892-1.174c0-1.275-1.32-1.725-1.953-1.941l-.247-.09-.133-.052c-.705-.269-3.306-1.263-3.306-4.143 0-3.172 3.061-3.537 3.754-3.537.453 0 2.631.055 3.715 2.094l-2 1.396c-.438-.888-1.167-1.182-1.615-1.182-1.108 0-1.338.812-1.338 1.182 0 1.037 1.203 1.502 2.22 1.895l.734.302c1.108.523 2.738 1.38 2.738 4.076C28 25.814 26.867 28 24.015 28c-3.831 0-4.846-2.3-5.015-2.712zm-10 .271l2.149-1.363c.168.507.823 1.443 1.772 1.443s1.435-.975 1.435-1.443V15h2.643v9.195c.043 1.268-.661 3.805-3.765 3.805-2.854 0-4.041-1.696-4.233-2.441z" fill="#3e3e3e"/></svg>