<svg xmlns="http://www.w3.org/2000/svg" width="800" height="800" viewBox="0 0 32 32" fill="#8cc84b" xmlns:v="https://vecta.io/nano"><path d="M17.173 2.299c-.71-.399-1.635-.397-2.346 0L4.152 8.189c-.692.364-1.16 1.108-1.152 1.88v11.864c-.005.787.486 1.538 1.196 1.897l3.056 1.65c1.202.591 2.706.721 3.923.105.988-.511 1.426-1.646 1.425-2.689l.003-11.746c.023-.174-.107-.36-.297-.356l-1.365-.001c-.172-.016-.34.127-.327.299l-.004 11.672a1.32 1.32 0 0 1-.872 1.237c-1.198.42-4.617-1.8-4.617-1.8-.125-.058-.205-.194-.193-.329V10.13c-.017-.158.08-.3.225-.364L15.79 3.904c.123-.082.295-.082.418.001l10.638 5.86c.145.064.238.209.224.366l-.001 11.742c.011.138-.061.273-.19.333l-10.548 5.818c-.152.087-.324.186-.494.09l-2.732-1.544c-.099-.062-.226-.088-.329-.019a12.34 12.34 0 0 1-1.264.576c-.66.261-.554.368.041.715l3.203 1.81c.703.438 1.646.47 2.372.064l10.675-5.886c.708-.361 1.202-1.109 1.197-1.897V10.069c.007-.756-.442-1.487-1.114-1.856L17.173 2.299zm5.369 8.907c-1.397-.747-3.058-.787-4.61-.689-1.121.111-2.301.42-3.117 1.224-.838.808-1.02 2.113-.622 3.168.285.745 1.003 1.23 1.745 1.486.956.338 1.961.442 2.965.546.916.095 1.833.191 2.714.463.36.119.779.302.889.693.102.464-.01 1.002-.386 1.325-1.196.946-4.521.801-5.703.056-.478-.317-.683-.879-.767-1.414-.009-.167-.144-.32-.325-.307l-1.36-.001c-.158-.013-.323.099-.331.261-.093 2.452 2.159 3.521 4.271 3.756 1.207.115 2.44.108 3.629-.151.893-.203 1.789-.578 2.404-1.266.758-.836.907-2.081.567-3.123-.26-.777-1.003-1.276-1.763-1.532-1.033-.354-2.257-.545-3.193-.634-1.36-.13-2.976-.077-3.361-.97-.153-.468-.023-1.049.407-1.337 1.138-.772 3.453-.669 4.631-.093.541.271.854.827.984 1.389.024.165.135.337.326.33l1.351.003c.155.011.324-.076.354-.235-.019-1.174-.619-2.376-1.7-2.948z"/></svg>